<svg width="50" height="50" viewBox="0 0 50 50" fill="none" xmlns="http://www.w3.org/2000/svg">
<path d="M20.3125 25C20.3125 22.4112 22.4112 20.3125 25 20.3125C27.5887 20.3125 29.6875 22.4112 29.6875 25C29.6875 27.5887 27.5887 29.6875 25 29.6875C22.4112 29.6875 20.3125 27.5887 20.3125 25Z" fill="white"/>
<path fill-rule="evenodd" clip-rule="evenodd" d="M4.16699 24.9997C4.16699 28.4151 5.05233 29.5653 6.82301 31.8657C10.3586 36.4588 16.2881 41.6663 25.0003 41.6663C33.7126 41.6663 39.642 36.4588 43.1776 31.8657C44.9482 29.5653 45.8337 28.4151 45.8337 24.9997C45.8337 21.5843 44.9482 20.4341 43.1776 18.1337C39.642 13.5404 33.7126 8.33301 25.0003 8.33301C16.2881 8.33301 10.3586 13.5404 6.82301 18.1337C5.05233 20.4341 4.16699 21.5843 4.16699 24.9997ZM25.0003 17.1872C20.6856 17.1872 17.1878 20.6849 17.1878 24.9997C17.1878 29.3145 20.6856 32.8122 25.0003 32.8122C29.3151 32.8122 32.8128 29.3145 32.8128 24.9997C32.8128 20.6849 29.3151 17.1872 25.0003 17.1872Z" fill="white"/>
</svg>
