<svg width="30" height="30" viewBox="0 0 30 30" fill="none" xmlns="http://www.w3.org/2000/svg">
<rect width="30" height="30" rx="15" fill="white"/>
<path d="M12.899 20.6251C13.0298 20.6256 13.1589 20.5967 13.277 20.5407C13.3951 20.4847 13.4992 20.4029 13.5815 20.3014L17.8078 15.0514C17.9365 14.8948 18.0068 14.6984 18.0068 14.4957C18.0068 14.2931 17.9365 14.0967 17.8078 13.9401L13.4328 8.69012C13.2843 8.51143 13.0708 8.39906 12.8395 8.37773C12.6081 8.35639 12.3777 8.42785 12.199 8.57637C12.0203 8.72489 11.908 8.93831 11.8866 9.16969C11.8653 9.40106 11.9368 9.63143 12.0853 9.81012L15.9965 14.5001L12.2165 19.1901C12.1095 19.3186 12.0416 19.475 12.0207 19.6408C11.9998 19.8067 12.0268 19.975 12.0986 20.126C12.1704 20.277 12.284 20.4042 12.4258 20.4926C12.5677 20.5811 12.7319 20.6271 12.899 20.6251Z" fill="#494566"/>
</svg>
